<svg width="82" height="32" viewBox="0 0 82 32" fill="none" xmlns="http://www.w3.org/2000/svg">
<g clip-path="url(#clip0_303_6065)">
<path fill-rule="evenodd" clip-rule="evenodd" d="M0.480879 2.36222C0.261856 2.58764 0.258301 2.74408 0.258301 12.588C0.258301 20.4123 0.288879 22.6246 0.397679 22.7668C0.473767 22.8664 1.08817 23.2554 1.7623 23.6308C2.43643 24.0056 4.3415 25.0744 5.99555 26.0045L9.61581 28.0397C9.95288 28.2289 10.5346 28.5574 10.9079 28.7693C11.2812 28.9819 11.6972 29.1555 11.8331 29.1555C11.9682 29.1555 13.4423 28.3903 15.1091 27.4552C16.7753 26.5194 19.2663 25.1227 20.6451 24.3519C22.024 23.5803 23.2144 22.8671 23.2905 22.7668C23.4 22.6246 23.4299 20.4024 23.4299 12.5375V2.48951L23.1824 2.31173C22.9619 2.15315 21.6997 2.13324 11.8188 2.13324C0.85279 2.13324 0.701323 2.13608 0.48159 2.36222H0.480879ZM22.0901 12.753L22.0873 21.9988L20.781 22.7142C19.7111 23.3034 18.6444 23.8983 17.581 24.4991C13.8747 26.5955 11.9347 27.6671 11.848 27.6671C11.7676 27.6671 6.22168 24.5873 2.98755 22.7462L1.65066 21.9853L1.62221 12.7459L1.59377 3.50711H22.093L22.0901 12.753ZM6.8311 6.25555V6.94248H18.7515V12.3356L19.3915 12.3007L20.0322 12.2666L20.062 9.16968C20.0905 6.18231 20.0834 6.06426 19.8629 5.82035L19.6339 5.56862H6.8311V6.25555ZM36.2796 7.95439C35.0601 8.27439 34.2736 8.73235 33.3975 9.63119C32.1161 10.9453 31.5465 12.3732 31.5465 14.2705C31.5465 17.4826 33.5532 20.0319 36.5619 20.642C38.9307 21.1235 41.2681 20.2723 42.718 18.3999L43.1518 17.8403L42.7877 17.6155C42.5886 17.4918 42.1235 17.2244 41.7559 17.0203L41.0875 16.6506L40.4645 17.2771C39.688 18.0586 38.9897 18.3338 37.8014 18.3274C36.8286 18.3217 36.269 18.1603 35.5728 17.6831C33.8107 16.4764 33.3641 13.6845 34.6313 11.7937C35.4867 10.5165 37.1486 9.90924 38.7934 10.2719C39.4661 10.4191 40.5811 11.1352 40.8002 11.559C40.8869 11.7283 41.0057 11.8655 41.0633 11.8655C41.2624 11.8655 43.0359 10.7775 43.0366 10.6559C43.0366 10.5322 42.349 9.64684 42.0354 9.36879C41.4956 8.88879 40.4496 8.28222 39.8153 8.08026C38.7607 7.74604 37.2752 7.69271 36.2796 7.95439ZM46.2679 14.193C46.2679 19.2618 46.2978 20.6691 46.4073 20.7082C46.4834 20.7359 46.6967 20.7451 46.8802 20.7295C47.0643 20.7139 47.5778 20.6968 48.0222 20.6918L48.83 20.6826V16.2168H50.6974L51.9582 18.4212C52.6523 19.633 53.2723 20.6648 53.3363 20.7139C53.4366 20.7899 55.9603 20.7949 55.9603 20.7188C55.9603 20.6939 55.0003 19.015 53.6876 16.7423C53.2894 16.0525 53.1756 15.8875 53.2859 15.8157C53.3681 15.7615 53.4488 15.7048 53.5276 15.6458C53.7239 15.5 54.9072 14.3693 55.2115 13.7649C55.5273 13.1377 55.5621 12.9656 55.5657 12.0355C55.5692 11.0982 55.5365 10.9332 55.2123 10.2605C54.7643 9.33182 54.1634 8.69395 53.2631 8.1912C52.8031 7.93498 52.2864 7.79761 51.7598 7.79155L49.4146 7.76453L46.2679 7.72755V14.193ZM59.1902 14.2705V20.7971H66.989V18.2776H61.6414V15.4154H64.0243C65.832 15.4154 66.4187 15.3805 66.4542 15.2724C66.4805 15.1942 66.4983 14.6396 66.494 14.0415L66.4869 12.9535L64.0642 12.9229L61.6414 12.8916V10.1482H66.989V7.74391H59.1902V14.2705ZM70.2196 14.2136V20.6826H73.1835C76.4709 20.6826 77.0291 20.6022 78.1292 19.9707C79.0729 19.4289 79.6432 18.8948 80.2043 18.0266C82.7088 14.1539 80.803 8.79635 76.5918 7.87333C76.2391 7.79582 74.8375 7.74391 73.1102 7.74391H70.2196V14.2129V14.2136ZM3.8231 9.23226C3.60621 9.45484 3.60052 9.61413 3.60052 14.9923C3.60052 19.2404 3.63252 20.5681 3.7399 20.7139C3.9639 21.0189 11.5351 25.2991 11.8444 25.2955C12.1516 25.292 19.7264 21.0061 19.949 20.7096C20.0499 20.5745 20.0876 19.8726 20.0876 18.1418V15.7581H18.7507L18.7479 17.8481L18.7443 19.9373L15.3666 21.8552C13.5099 22.9105 11.9191 23.7731 11.8323 23.7731C11.7456 23.7731 10.7479 23.2433 9.6151 22.5955C8.49362 21.9542 7.37101 21.3149 6.24728 20.6776L4.93955 19.938L4.93812 15.1572L4.93741 10.3764H15.1867V9.00257H9.61652C4.1943 9.00257 4.03999 9.00897 3.8231 9.23155V9.23226ZM52.1701 10.3487C53.3015 10.9318 53.352 13.0118 52.2512 13.7016C51.9419 13.8957 51.6859 13.9263 50.3618 13.9263H48.83V10.1489H50.3063C51.4889 10.1489 51.8594 10.1894 52.1701 10.3494V10.3487ZM76.9324 10.5834C78.2963 11.2746 78.9755 12.6307 78.888 14.4881C78.8091 16.1535 78.1186 17.2892 76.8016 17.9185C76.232 18.1908 76.0315 18.2193 74.4251 18.2591L72.67 18.3018V10.124L74.4272 10.1645C76.1545 10.2051 76.1971 10.2122 76.9324 10.5841V10.5834ZM6.94275 16.1528C6.94275 17.314 6.98897 18.3892 7.04586 18.5421C7.12123 18.7469 7.74275 19.1644 9.35697 20.0959C10.5715 20.7964 11.6844 21.3702 11.8302 21.3702C12.0556 21.3702 15.5443 19.4794 16.1275 19.0413C16.3138 18.9012 16.3088 18.8607 16.0307 18.2968L15.7371 17.7002L15.2663 17.9782C13.6955 18.9069 11.9397 19.8819 11.838 19.8819C11.7292 19.8819 8.9047 18.2989 8.4887 18.0045C8.26257 17.8445 8.27963 18.0173 8.27963 15.874V14.0422H6.94275V16.1528Z" fill="#8F95B3"/>
</g>
<defs>
<clipPath id="clip0_303_6065">
<rect width="81.0667" height="32" fill="white" transform="translate(0.258301)"/>
</clipPath>
</defs>
</svg>
