<svg width="141" height="24" viewBox="0 0 141 24" fill="none" xmlns="http://www.w3.org/2000/svg">
<path fill-rule="evenodd" clip-rule="evenodd" d="M16.3503 4.98784C17.9587 6.60412 19.274 9.25159 18.5209 10.8248C16.5078 15.0304 1.4826 22.4062 0.205943 21.1304C-1.06984 19.8538 6.3121 4.82331 10.5178 2.80933C12.0901 2.05618 14.7384 3.37244 16.3547 4.98168L16.3503 4.98784Z" fill="#8F95B3"/>
<path fill-rule="evenodd" clip-rule="evenodd" d="M28.8132 9.27561C28.5519 8.30778 27.885 7.33115 26.8899 7.21501C25.0642 7.00208 22.1862 10.2303 22.3921 10.9966C22.5971 11.7621 26.6629 13.1126 28.1815 12.0207C28.9645 11.4576 29.0745 10.2434 28.8167 9.27473H28.8132V9.27561ZM23.1637 0.332825C24.5195 0.700602 25.8895 1.635 26.0514 3.03044C26.3496 5.58992 21.8246 9.62492 20.7503 9.33632C19.676 9.04861 17.7825 3.34895 19.3135 1.21971C20.1018 0.122541 21.8061 -0.0323125 23.1637 0.328426V0.332825ZM63.5928 15.4847L62.2492 15.2806C60.9682 15.0914 60.2273 14.677 60.2273 13.9221C60.2273 13.0554 61.1925 12.5179 62.6188 12.5179C63.628 12.5179 64.4489 12.8962 65.2354 13.2965L65.3912 13.3757C65.6871 13.5256 66.0295 13.5549 66.3466 13.4574C66.6636 13.3599 66.9305 13.1433 67.0911 12.8531L67.2019 12.6551C67.2879 12.5004 67.3415 12.3298 67.3593 12.1537C67.3772 11.9777 67.3589 11.7998 67.3057 11.631C67.2542 11.4626 67.1688 11.3064 67.0549 11.1721C66.941 11.0377 66.8009 10.928 66.6432 10.8497C65.4976 10.276 64.2553 9.76129 62.6188 9.76129C59.1988 9.76129 56.9957 11.4128 56.9957 14.0708C56.9957 16.2528 58.5636 17.621 61.5313 18.0266L62.8863 18.2026C64.3195 18.4041 65.0155 18.8273 65.0155 19.4995C65.0155 20.1198 64.6811 20.9442 62.4613 20.9442C61.2383 20.9442 59.9959 20.6336 58.9876 19.9939C58.7867 19.8671 58.5539 19.7999 58.3163 19.8004C57.8737 19.8004 57.4532 20.0344 57.2191 20.4136L57.1444 20.535C57.0513 20.6864 56.9896 20.8549 56.963 21.0305C56.9364 21.2061 56.9454 21.3853 56.9895 21.5574C57.0775 21.9023 57.2974 22.1874 57.6054 22.3607C59.3633 23.3497 61.3923 23.6999 62.4622 23.6999C66.0264 23.6999 68.234 22.1373 68.234 19.3886C68.234 17.1872 66.6722 15.9264 63.5928 15.4838V15.4847ZM105.051 20.2869C104.835 20.046 104.54 19.8898 104.219 19.8462C103.899 19.8027 103.573 19.8747 103.3 20.0494C102.575 20.5104 101.78 20.7533 101 20.7533C98.858 20.7533 97.3033 19.0622 97.3033 16.7306C97.3033 14.3999 98.858 12.7079 101 12.7079C101.802 12.7016 102.587 12.9401 103.25 13.3915C103.785 13.747 104.555 13.6555 104.995 13.1865L105.108 13.0651C105.41 12.7431 105.554 12.3067 105.503 11.8685C105.479 11.6567 105.409 11.4527 105.298 11.2708C105.186 11.0889 105.037 10.9335 104.859 10.8154C103.805 10.1168 102.5 9.74809 101.082 9.74809C96.9707 9.74809 94.0989 12.6199 94.0989 16.7306C94.0989 20.843 96.9707 23.7139 101.082 23.7139C102.505 23.7139 103.819 23.3374 104.88 22.6247C105.055 22.5067 105.203 22.3525 105.314 22.1725C105.424 21.9925 105.495 21.7909 105.521 21.5812C105.548 21.3693 105.529 21.1541 105.465 20.9502C105.401 20.7463 105.294 20.5585 105.152 20.3996L105.051 20.2869ZM38.5083 5.0233C37.4384 5.0233 36.5999 5.87236 36.5999 6.95545C36.5999 8.04382 37.4208 8.86472 38.5091 8.86472C39.5914 8.86472 40.4413 8.02623 40.4413 6.95545C40.444 6.70089 40.3958 6.44835 40.2997 6.21265C40.2035 5.97695 40.0612 5.76283 39.8811 5.58286C39.7011 5.40289 39.4869 5.26069 39.2511 5.1646C39.0154 5.06852 38.7628 5.02048 38.5083 5.0233ZM39.0863 9.86071H37.9601C37.4085 9.86071 36.9615 10.3077 36.9615 10.8593V22.3766C36.9615 22.9274 37.4093 23.3752 37.961 23.3752H39.0863C39.638 23.3752 40.085 22.9274 40.085 22.3757V10.8593C40.085 10.3077 39.638 9.86071 39.0863 9.86071ZM76.0462 20.6943C74.7827 20.689 73.3142 19.6992 73.3142 17.9659V12.7713H76.055C76.6066 12.7713 77.0545 12.3234 77.0545 11.7717V10.8602C77.0545 10.3086 76.6066 9.86071 76.055 9.86071H73.3151V6.86307C73.3151 6.3114 72.8681 5.86444 72.3165 5.86444H71.1287C70.5761 5.86444 70.1292 6.3114 70.1292 6.86307V17.7794C70.1292 20.9222 72.5136 23.7007 75.8156 23.7007H75.8174C75.9799 23.7009 76.1409 23.6688 76.291 23.6065C76.4411 23.5441 76.5774 23.4526 76.692 23.3374C76.8072 23.2228 76.8987 23.0865 76.9611 22.9364C77.0234 22.7863 77.0555 22.6253 77.0553 22.4628V21.6929C77.0553 21.1386 76.6013 20.6961 76.047 20.6943H76.0462ZM48.7655 9.74809C44.7693 9.74809 42.5406 12.9446 42.5406 15.68V22.3757C42.5406 22.9274 42.9876 23.3752 43.5392 23.3752H44.6778C45.2294 23.3752 45.6773 22.9274 45.6773 22.3757V16.1824C45.6773 14.1086 46.9337 12.7352 48.7655 12.7352C50.5983 12.7352 51.8538 14.1086 51.8538 16.1824V22.3766C51.8538 22.9274 52.3017 23.3752 52.8533 23.3752H53.9919C54.5435 23.3752 54.9914 22.9274 54.9914 22.3757V15.68C54.9914 12.9437 52.7627 9.74809 48.7655 9.74809ZM130.974 9.88623C130.541 9.79209 129.455 9.74809 128.893 9.74809L128.743 9.74985C125.649 9.74985 122.792 12.2724 122.792 15.7504L122.791 15.7592V22.3757C122.791 22.9274 123.238 23.3752 123.789 23.3752H124.928C125.48 23.3752 125.927 22.9274 125.927 22.3757V15.8648C125.927 13.9714 127.279 12.7369 128.935 12.7369C129.253 12.743 129.57 12.7771 129.882 12.839C130.229 12.9078 130.588 12.8394 130.885 12.6481C131.181 12.4568 131.392 12.1577 131.472 11.814C131.553 11.477 131.613 11.2254 131.669 10.9957C131.726 10.767 131.688 10.5065 131.556 10.2962C131.491 10.1924 131.407 10.1025 131.307 10.0321C131.207 9.96164 131.094 9.91203 130.974 9.88623ZM139.326 12.7713C139.877 12.7713 140.324 12.3234 140.324 11.7717V10.8602C140.324 10.3086 139.877 9.86071 139.326 9.86071H136.585V6.86307C136.585 6.3114 136.137 5.86444 135.586 5.86444H134.398C133.846 5.86444 133.399 6.3114 133.399 6.86307V17.7794C133.399 20.9222 135.784 23.7007 139.086 23.7007H139.086C139.416 23.7007 139.727 23.5714 139.961 23.3374C140.196 23.1033 140.324 22.7919 140.324 22.4628V21.6929C140.324 21.1386 139.871 20.6961 139.316 20.6943C138.053 20.689 136.585 19.6992 136.585 17.9659V12.7713H139.326ZM117.594 10.8197L117.589 10.8154C116.536 10.1168 115.23 9.74809 113.813 9.74809L113.739 9.74985L113.666 9.74809C112.248 9.74809 110.942 10.1176 109.889 10.8154L109.883 10.8197C107.987 12.0128 106.829 14.1218 106.829 16.7306C106.829 19.4652 108.099 21.6489 110.159 22.8068C111.167 23.4011 112.317 23.714 113.487 23.7131C115.731 23.7139 117.086 22.4426 117.513 21.8874V22.366C117.513 22.9177 117.96 23.3655 118.511 23.3655H119.65C120.201 23.3655 120.649 22.9177 120.649 22.366V16.7306C120.649 14.1218 119.491 12.0128 117.594 10.8197ZM114.994 20.5447C114.611 20.6727 114.21 20.7427 113.807 20.7524L113.739 20.7541L113.671 20.7524C113.267 20.7425 112.867 20.6726 112.484 20.5447C111.011 20.0247 110.034 18.5791 110.034 16.7315C110.034 14.5494 111.397 12.927 113.329 12.7281L113.359 12.7255C113.471 12.7154 113.583 12.7098 113.695 12.7088H113.784C113.896 12.7099 114.008 12.7157 114.119 12.7264L114.15 12.7281C116.081 12.927 117.444 14.5494 117.444 16.7315C117.444 18.5791 116.466 20.0247 114.994 20.5447ZM89.1718 10.8197L89.1665 10.8154C88.1133 10.1168 86.8076 9.74809 85.3893 9.74809L85.3163 9.74985L85.2432 9.74809C83.8249 9.74809 82.5192 10.1176 81.466 10.8154L81.4608 10.8197C79.5638 12.0128 78.4059 14.1218 78.4059 16.7306C78.4059 19.4652 79.6764 21.6489 81.7361 22.8068C82.7447 23.4011 83.8941 23.714 85.0646 23.7131C87.3082 23.7139 88.6632 22.4426 89.0891 21.8874V22.366C89.0891 22.9177 89.5369 23.3655 90.0886 23.3655H91.2271C91.7787 23.3655 92.2266 22.9177 92.2266 22.366V16.7306C92.2266 14.1218 91.0678 12.0128 89.1718 10.8197ZM86.5709 20.5447C86.1878 20.6726 85.7878 20.7426 85.384 20.7524L85.3163 20.7541L85.2485 20.7524L85.1667 20.7506C84.7906 20.7336 84.4186 20.6643 84.0616 20.5447C82.5887 20.0247 81.6112 18.5791 81.6112 16.7306C81.6112 14.5486 82.9741 12.927 84.9054 12.7281C84.9159 12.7281 84.9256 12.7264 84.9362 12.7255C85.0476 12.7153 85.1595 12.7097 85.2714 12.7088H85.3611C85.4728 12.7098 85.5843 12.7157 85.6955 12.7264L85.7271 12.7281C87.6584 12.927 89.0213 14.5494 89.0213 16.7315C89.0213 18.5791 88.0438 20.0247 86.5709 20.5447Z" fill="#8F95B3"/>
</svg>
